<?xml version="1.0" encoding="utf-8"?>
<!-- Generator: Adobe Illustrator 26.4.1, SVG Export Plug-In . SVG Version: 6.00 Build 0)  -->
<svg version="1.1" id="图层_1" xmlns="http://www.w3.org/2000/svg" xmlns:xlink="http://www.w3.org/1999/xlink" x="0px" y="0px"
	 viewBox="0 0 179 106" style="enable-background:new 0 0 179 106;" xml:space="preserve">
<style type="text/css">
	.st0{fill-rule:evenodd;clip-rule:evenodd;fill:#FFFFFF;stroke:#0046E2;stroke-width:3;}
	.st1{fill-rule:evenodd;clip-rule:evenodd;fill:#DEE0EA;}
	.st2{display:none;}
	.st3{display:inline;fill-rule:evenodd;clip-rule:evenodd;fill:#FF8000;}
	.st4{display:inline;}
	.st5{fill-rule:evenodd;clip-rule:evenodd;fill:#002FA7;}
	.st6{fill:#002FA7;}
	.st7{font-family:'Lexend-Regular';}
	.st8{font-size:13px;}
	.st9{fill:url(#形状_00000181078375975389734610000005871314886066838924_);}
	.st10{filter:url(#Adobe_OpacityMaskFilter);}
	.st11{fill-rule:evenodd;clip-rule:evenodd;fill:#FFFFFF;}
	.st12{mask:url(#mask-3_00000129896676500583388560000000941261929180205989_);}
	.st13{fill:url(#SVGID_1_);}
	.st14{fill:url(#SVGID_00000065052818450571816780000017023419310337582766_);}
	.st15{fill:url(#SVGID_00000153684525799527861840000009623427869533130923_);}
</style>
<g id="画板">
	<g id="编组-3">
		<path id="矩形" class="st0" d="M9.5,1.5h160c4.4,0,8,3.6,8,8v87c0,4.4-3.6,8-8,8H9.5c-4.4,0-8-3.6-8-8v-87
			C1.5,5.1,5.1,1.5,9.5,1.5z"/>
		<path id="矩形_00000153675584756033689980000006709051227149867941_" class="st1" d="M3,55h173v43c0,2.8-2.2,5-5,5H8
			c-2.8,0-5-2.2-5-5V55L3,55z"/>
		<g id="编组备份" transform="translate(17.000000, 15.000000)" class="st2">
			<path id="Fill-1" class="st3" d="M131,6.9c-0.9,1.2,0.1,2.3,0.7,3s3.8,2.8,6.1,5.2c2.8,2.5,3,6.9,0.5,9.7
				c-0.1,0.2-0.3,0.3-0.4,0.5c-4.6,4.7-16.1,1.7-16.1,1.7l-0.7-6.8c1.1,0.7,7.3,2.5,9.2,1.5c2.4-1.2,1.4-2.4-0.4-4.2
				c-1.8-1.7-6.5-4.4-7.5-8.1c-0.9-3.4,0.7-6.9,3.9-8.4c4.1-1.9,13.2-0.4,13.2-0.4l0.4,6.7c-1.2-0.5-2.4-0.9-3.7-1.2
				C134.9,5.9,131.8,5.9,131,6.9L131,6.9z M117.6,17.8c-0.2,6.8-3.9,8.3-7.7,9.4c-3.7,1-7.6,1.1-11.3,0.2c-6.5-1.5-7.4-5-7.5-7.5
				c-0.1-1,1-19.4,1-19.4l8.3-0.1c0,0-0.6,9.2-0.9,13.9c-0.3,4.8,0.6,5.9,1.4,6.7c0.3,0.3,1.3,1.2,4.4,0.8c3.5-0.5,3.7-4.7,3.8-5.7
				c0.2-1,0.9-15.6,0.9-15.6h8.6C118.5,1,117.7,11,117.6,17.8L117.6,17.8z"/>
			<g id="编组" transform="translate(0.000000, 1.516496)" class="st4">
				<path id="Fill-3" class="st5" d="M9.4,5.4L9.2,9.9L20,9.8l-0.3,5.5L8.8,15.5l-0.2,4.8l13-0.3l-0.4,5.8H0
					C1.3,17.6,1.4,0.1,1.4,0.1L22.6,0l-0.4,5.5L9.4,5.4z M37.5,25.9l0.4-8.5c0,0-1,0.3-2.3,0.8c-1.4,0.4-3.4,0.9-3.7,2.1
					c-0.5,1.9,2,2.4,4.2,1.8l-1.3,4.1c0,0-7,1.5-9.4-2.4c-1.7-2.6-0.9-6,1.7-7.7c0.1,0,0.1-0.1,0.2-0.1c1.9-0.9,3.9-1.5,6-1.9
					c2.9-0.6,4.5-1.1,4.4-2.2c-0.1-1.5-1.7-1.9-3.6-1.6c-0.9,0.1-6,1.1-6.9,1.8L28,7.3c0,0,8.1-1.6,11.6-1c3.5,0.5,5.8,2,5.8,4.8
					c-0.1,3.2-0.8,14.9-0.8,14.9H37.5z M57.9,11.5c-0.9,0.7,0,1.6,0.6,2.2c0.5,0.5,2.7,1.7,4.5,3.4c2,1.8,2.1,4.8,0.3,6.8
					c-0.2,0.2-0.3,0.3-0.5,0.5c-3.9,3.4-13.5,1.2-13.5,1.2l-0.5-5.5c1,0.5,5.5,1.9,7.1,1.1c2.1-0.9,1.1-1.8-0.3-3
					c-1.6-1.3-4.6-2.8-5.2-5.4c-0.6-2.5,0.8-5.1,3.2-6.1C57,5.5,64.6,6.8,64.6,6.8l0.3,5.3c-1-0.4-2.1-0.6-3.1-0.9
					C60.7,11,58.7,11,57.9,11.5L57.9,11.5z M79.7,10.6c-0.6-0.2-1.2-0.2-1.8-0.1c-0.3,0-2.2,0.3-2.8,3.6l6.3,0.1
					C81.5,14.2,81.7,11.1,79.7,10.6L79.7,10.6z M88.5,17H74.9c0.3,0.9-0.5,2.5,2.3,3.8c2.9,1.5,9.5-0.8,9.5-0.8l-0.9,5.4
					c-3.3,0.7-6.6,1-10,0.7c-3.9-0.3-7.8-2.3-8.4-8.1C67,12.7,70,8.6,72.4,7.4c3.8-1.8,8.2-1.9,12-0.3C89.9,9.7,88.5,17,88.5,17
					L88.5,17z"/>
			</g>
		</g>
		<g id="编组-4" transform="translate(18.000000, 62.000000)">
			<text transform="matrix(1 0 0 1 10 13)" class="st6 st7 st8">AUTHORIZED </text>
			<text transform="matrix(1 0 0 1 10 29)" class="st6 st7 st8">PARTNER</text>
			<rect id="矩形_00000174588337165239539650000002356218203203944619_" y="3" class="st5" width="1" height="28"/>
		</g>
	</g>
</g>
<g id="页面-1">
	<g id="画板备份-7" transform="translate(-27, -19)">
		<g id="logo-new" transform="translate(27, 19)">
			
				<linearGradient id="形状_00000055680880449246229100000003169990500077278910_" gradientUnits="userSpaceOnUse" x1="-469.1007" y1="1235.0309" x2="-467.0548" y2="1235.0352" gradientTransform="matrix(121.6683 0 0 -32.0949 57108.4336 39672.5977)">
				<stop  offset="0" style="stop-color:#1966E0"/>
				<stop  offset="1" style="stop-color:#1D4BC2"/>
			</linearGradient>
			<path id="形状" style="fill:url(#形状_00000055680880449246229100000003169990500077278910_);" d="M102,26.2
				c2,0,3.9,0.5,5.6,1.5l0.1,0c1.7,1,3,2.3,4,4.1l0,0.1c1,1.7,1.5,3.7,1.5,5.8v0.1l0,0.2c0,0.6,0,1.2-0.1,1.6l0,0
				c-0.1,0.4-0.4,0.6-0.7,0.6l-16.3,0c-0.1,0-0.2,0.1-0.2,0.3l0,0.1c0.4,1.3,1,2.4,2,3.2l0,0c1.1,0.9,2.5,1.4,4.2,1.4l0.1,0
				c1.3,0,2.4-0.3,3.4-0.9l0,0c0.8-0.5,1.3-1.1,1.6-1.9l0,0c0.1-0.3,0.4-0.5,0.7-0.5l4.2,0c0.5,0,0.8,0.5,0.7,0.9l0,0.1
				c-0.5,2.1-1.7,3.9-3.5,5.2l-0.1,0c-2,1.5-4.4,2.2-7.2,2.2h-0.1c-2.2,0-4.2-0.5-6-1.6l-0.1,0c-1.8-1.1-3.2-2.5-4.3-4.4l0-0.1
				c-1-1.8-1.5-3.9-1.5-6.1v-0.1c0-2.2,0.5-4.2,1.6-6l0-0.1c1-1.8,2.5-3.2,4.3-4.3C97.7,26.8,99.7,26.2,102,26.2L102,26.2z
				 M101.7,31.4h-0.1c-1.4,0-2.6,0.4-3.6,1.1l0,0c-0.9,0.6-1.5,1.5-1.9,2.6c0,0.1,0,0.1,0.1,0.1l10.8,0c0.1,0,0.1-0.1,0.1-0.1l0,0
				c-0.3-1-0.8-1.9-1.7-2.5l0,0C104.3,31.8,103.1,31.5,101.7,31.4L101.7,31.4z M79.1,26.2c-2.6,0-4.8,0.7-6.4,2
				c-1.6,1.3-2.4,3.1-2.4,5.1l0,0.1c0,1.2,0.2,2.2,0.7,3.1l0,0c0.5,0.8,1.1,1.5,1.9,1.9l0,0c0.8,0.4,1.6,0.7,2.5,1l0.1,0
				c0.9,0.2,1.8,0.4,2.6,0.6l0.2,0c0.9,0.2,1.7,0.3,2.4,0.5l0.1,0c0.7,0.2,1.3,0.5,1.7,0.8l0,0c0.4,0.4,0.6,0.8,0.6,1.4l0,0
				c0,0.7-0.3,1.3-0.9,1.7l0,0c-0.6,0.4-1.5,0.7-2.7,0.7l-0.1,0c-1.2,0-2.2-0.3-3-0.8l0,0c-0.7-0.5-1.1-1.1-1.3-1.8l0,0
				c-0.1-0.3-0.4-0.6-0.7-0.6l0,0l-4,0c-0.4,0-0.8,0.4-0.7,0.8l0,0c0.3,2.2,1.3,4,3,5.3l0.1,0c1.8,1.4,4.1,2.1,6.9,2.1H80
				c2.5,0,4.6-0.7,6.3-2.1l0.1,0c1.7-1.4,2.6-3.1,2.6-5.2l0-0.1c0-1.1-0.2-2.1-0.6-3l0,0c-0.4-0.9-0.9-1.5-1.5-2l0,0
				c-0.6-0.5-1.3-0.8-2.1-1.2l-0.1,0c-0.8-0.3-1.6-0.6-2.4-0.7l-0.1,0c-0.8-0.1-1.5-0.3-2.2-0.4l-0.2,0l-0.2,0
				c-0.7-0.1-1.3-0.3-1.8-0.4l-0.1,0c-0.6-0.1-1-0.4-1.3-0.7l0,0c-0.3-0.3-0.5-0.7-0.5-1.1l0,0c0-0.6,0.3-1.1,0.8-1.4l0,0
				c0.6-0.4,1.4-0.6,2.3-0.6l0.1,0c1.1,0,2,0.2,2.7,0.7l0,0c0.6,0.4,0.9,0.9,1.1,1.4l0,0c0.1,0.3,0.4,0.5,0.7,0.5l0,0l4.2,0
				c0.4,0,0.8-0.4,0.7-0.8l0,0c-0.4-2-1.3-3.6-2.9-4.8l0,0C83.8,26.9,81.7,26.2,79.1,26.2L79.1,26.2z M153.3,18.2
				c-3.1,0-5.6,0.8-7.6,2.5c-2,1.7-3,3.8-3,6.4l0,0.1c0,1.2,0.2,2.3,0.6,3.3l0,0.1c0.4,1,0.9,1.8,1.6,2.4l0,0
				c0.6,0.6,1.4,1.1,2.2,1.5l0.1,0c0.8,0.4,1.7,0.8,2.6,1.1l0.1,0c0.6,0.2,1.3,0.4,1.9,0.5l0.3,0.1l0.6,0.1c0.9,0.2,1.7,0.5,2.5,0.7
				l0.1,0c0.8,0.2,1.5,0.5,2.1,0.8l0.1,0c0.6,0.3,1,0.7,1.3,1.1l0,0c0.3,0.5,0.5,1,0.5,1.6l0,0c0,1.1-0.5,2-1.4,2.7l0,0
				c-1,0.7-2.3,1.1-3.9,1.1l-0.1,0c-1.7,0-3.1-0.5-4.2-1.4l0,0c-0.8-0.7-1.3-1.6-1.5-2.7l0,0c0-0.1,0-0.4-0.1-0.8l0-0.1
				c0-0.3-0.2-0.5-0.5-0.5l0,0l-4.8,0c-0.3,0-0.5,0.2-0.5,0.5l0,0v0v0l0,0.2c0,0.5,0.1,0.9,0.1,1.2l0,0.1c0.3,2.3,1.4,4.3,3.2,6
				l0.1,0c2.2,2,4.9,3,8.2,3h0.1c2.1,0,4-0.4,5.7-1.2l0.1,0c1.7-0.8,3-1.9,4-3.3l0-0.1c1-1.4,1.5-3.1,1.5-4.8v-0.1
				c0-1.3-0.2-2.4-0.6-3.4l0-0.1c-0.4-1-0.9-1.8-1.6-2.5l0,0c-0.7-0.6-1.4-1.2-2.2-1.6l-0.1,0c-0.8-0.5-1.7-0.8-2.6-1.1l-0.1,0
				c-0.7-0.2-1.4-0.4-2.1-0.6l-0.2-0.1l-0.5-0.1c-0.9-0.2-1.7-0.4-2.5-0.7l-0.1,0c-0.8-0.2-1.5-0.5-2.1-0.8l-0.1,0
				c-0.6-0.3-1-0.6-1.4-1l0,0c-0.3-0.4-0.5-0.9-0.5-1.4l0,0c0-1,0.4-1.7,1.2-2.3l0,0c0.8-0.6,2-0.9,3.4-0.9l0.1,0
				c1.5,0,2.7,0.4,3.6,1.2l0,0c0.5,0.5,0.9,1,1.2,1.7l0,0c0,0.1,0.1,0.2,0.1,0.3l0,0.1c0,0.1,0,0.2,0.1,0.3l0,0.1c0,0.1,0,0.1,0,0.2
				l0,0.1c0,0,0,0.1,0,0.2l0,0.1c0,0.3,0.2,0.5,0.5,0.5l0,0l5,0c0.3,0,0.5-0.2,0.5-0.5l0,0l0-0.2c0-0.1,0-0.1,0-0.2l0,0
				c0-0.2,0-0.3,0-0.5l0-0.1c0-0.2,0-0.3-0.1-0.5l0-0.1c-0.1-0.7-0.3-1.4-0.6-2.1l0-0.1c-0.5-1.2-1.1-2.2-2-3.1l-0.1-0.1
				c-0.9-0.9-2-1.6-3.4-2.2l-0.1,0C156.6,18.5,155,18.3,153.3,18.2L153.3,18.2z M120.7,18.7h-4.8c-0.3,0-0.5,0.2-0.5,0.5l0,0v18.7
				c0,3.5,1.1,6.5,3.4,8.8l0.1,0.1c2.3,2.3,5.2,3.5,8.6,3.5l0.1,0c3.5,0,6.4-1.2,8.7-3.5l0.1-0.1c2.3-2.3,3.4-5.3,3.5-8.8l0-0.1
				V19.2c0-0.3-0.2-0.5-0.5-0.5l0,0h-4.8c-0.3,0-0.5,0.2-0.5,0.5l0,0l0,18.7c0,1.9-0.6,3.4-1.8,4.7l0,0c-1.2,1.3-2.7,1.9-4.4,1.9
				l-0.1,0c-1.8,0-3.2-0.6-4.4-1.9l0,0c-1.2-1.3-1.8-2.8-1.8-4.7l0-0.1V19.2C121.2,18.9,121,18.7,120.7,18.7L120.7,18.7z M55.3,26.2
				c1.5,0,2.7,0.2,4.1,0.7l0.1,0l0,0c0,0,0,0,0.1,0l0.1,0l0.1,0c0.1,0,0.2,0.1,0.2,0.1l0.1,0l0.1,0c0.1,0,0.2,0.1,0.2,0.1
				c0.5,0.3,1.1,0.6,1.7,1l0,0l0-0.9l0,0c0-0.4,0.3-0.7,0.7-0.7l4.2,0l0,0c0.4,0,0.7,0.3,0.7,0.7l0,21.6c0,0.4-0.3,0.7-0.7,0.7
				l-4.2,0l0,0c-0.4,0-0.7-0.3-0.7-0.7v-1c-0.1,0.1-0.2,0.1-0.2,0.2l-0.2,0.1l0,0l-0.1,0.1c-0.3,0.2-0.5,0.3-0.7,0.4l-0.1,0
				c-0.4,0.2-0.7,0.4-1.3,0.6l-0.1,0c-1.5,0.6-2.7,0.7-4.9,0.7h-0.1c-2,0-3.8-0.5-5.5-1.6l-0.1,0c-1.7-1.1-3-2.5-3.9-4.3l0-0.1
				c-1-1.8-1.4-3.8-1.4-6v-0.1c0-2.1,0.5-4.1,1.5-5.9l0-0.1c1-1.8,2.3-3.2,4-4.3l0.1,0c1.7-1,3.5-1.5,5.4-1.6l0.1,0l0.1,0
				c0.2,0,0.4,0,0.6,0H55.3z M55.6,31.6h-0.1c-1.8,0-3.3,0.6-4.6,1.9l0,0c-1.2,1.3-1.9,2.8-1.9,4.6l0,0.1c0,1.8,0.6,3.4,1.9,4.6
				c1.3,1.3,2.8,1.9,4.6,1.9l0.1,0c1.8,0,3.4-0.6,4.6-1.9l0,0c1.2-1.3,1.8-2.8,1.8-4.7l0-0.1c0-1.8-0.6-3.4-1.9-4.6l0,0
				C59,32.3,57.5,31.7,55.6,31.6z"/>
			<g id="编组-Clipped">
				<g id="path-2_00000068674974568273873830000002191341254084189598_">
				</g>
				<defs>
					<filter id="Adobe_OpacityMaskFilter" filterUnits="userSpaceOnUse" x="12.6" y="7.1" width="36.1" height="42.4">
						<feColorMatrix  type="matrix" values="1 0 0 0 0  0 1 0 0 0  0 0 1 0 0  0 0 0 1 0"/>
					</filter>
				</defs>
				
					<mask maskUnits="userSpaceOnUse" x="12.6" y="7.1" width="36.1" height="42.4" id="mask-3_00000129896676500583388560000000941261929180205989_">
					<g class="st10">
						<polygon id="path-2_00000053535050919285154210000000237787946764389792_" class="st11" points="11.1,6.4 49.4,6.4 49.4,50.3 
							11.1,50.3 						"/>
					</g>
				</mask>
				<g id="编组_00000053531982385722307420000000585870015563028640_" class="st12">
					<g id="路径" transform="translate(-11.8363, -13.4241)">
						<g transform="translate(31.726, 31.7822) rotate(45) translate(-31.726, -31.7822)translate(11.5222, 7.0749)">
							
								<linearGradient id="SVGID_1_" gradientUnits="userSpaceOnUse" x1="578.94" y1="1200.0594" x2="580.0541" y2="1201.5693" gradientTransform="matrix(14.5162 -13.0861 -14.5162 -13.0861 9046.2549 23330.2949)">
								<stop  offset="0" style="stop-color:#2684FF"/>
								<stop  offset="1" style="stop-color:#002FA7"/>
							</linearGradient>
							<path class="st13" d="M39.8,35.5c-1.4,1.4-3.6,1.5-5,0.1c-1.2-1.2-1.4-2.9-0.6-4.3c-2.8,3.8-2.5,9.2,1,12.6
								c1.5,1.5,3,2,4.6,2c2.5-0.5,4.9-1.7,6.8-3.6l6.1-6c0.2-0.2,0.2-0.5,0.1-0.7l-4-7.9c-0.2-0.4-0.7-0.4-1-0.2L39.8,35.5z"/>
							
								<linearGradient id="SVGID_00000160180576782877814950000007432928831015744139_" gradientUnits="userSpaceOnUse" x1="581.4227" y1="1215.7467" x2="581.6573" y2="1216.6514" gradientTransform="matrix(17.545 -25.021 -17.545 -25.021 11151.2676 44995.1953)">
								<stop  offset="0" style="stop-color:#EA3B3B"/>
								<stop  offset="1" style="stop-color:#FFAA00"/>
							</linearGradient>
							<path style="fill:url(#SVGID_00000160180576782877814950000007432928831015744139_);" d="M33.2-3c-0.2-0.4-0.7-0.4-1-0.2
								l-16,15.8c-5.1,5.1-5.1,13.4,0,18.5c0.3,0.3,0.7,0.6,1.1,0.9c0.1-1.4,0.7-3.3,0.9-4c0.2-0.7,0.4-1.3,0.4-1.3
								c0.2-0.6,0.5-1.3,0.9-2.1c0.8-1.6,1.7-3,2.7-4.1c0.5-0.6,1.8-2.1,3.1-3.4l1.7-1.6l10.1-10c0.2-0.2,0.2-0.5,0.1-0.7L33.2-3z"
								/>
							
								<linearGradient id="SVGID_00000131333721254612815420000015880001946720757146_" gradientUnits="userSpaceOnUse" x1="587.4012" y1="1209.2039" x2="587.5859" y2="1210.1084" gradientTransform="matrix(14.7755 -24.317 -14.7755 -24.317 9219.9121 43730.5156)">
								<stop  offset="0" style="stop-color:#002FA7"/>
								<stop  offset="1" style="stop-color:#2684FF"/>
							</linearGradient>
							<path style="fill:url(#SVGID_00000131333721254612815420000015880001946720757146_);" d="M34.2,31.3c0.2-0.3,0.3-0.5,0.6-0.7
								l0.4-0.4l3.4-3.4l6.2-6.1c0.2-0.2,0.2-0.5,0.1-0.7l-4-7.9c-0.2-0.4-0.7-0.4-1-0.2L27.9,23.8c-5.1,5.1-5.1,13.4,0,18.5
								c3.2,3.2,7.7,4.4,11.9,3.6c-1.6,0.1-3.1-0.5-4.6-2C31.7,40.5,31.4,35.1,34.2,31.3L34.2,31.3z"/>
						</g>
					</g>
				</g>
			</g>
		</g>
	</g>
</g>
</svg>
